<svg width="256" height="256" viewBox="0 0 256 256" fill="none" xmlns="http://www.w3.org/2000/svg">
<circle cx="128" cy="127.5" r="120" fill="#363161"/>
<path d="M152.601 73.0112L68.517 64H157.353L152.601 73.0112ZM172.021 192L175.533 171.52H115.001L119.546 145.92L164.377 64H234L220.984 136.294H233.793L227.596 171.52H214.787L211.275 192H172.021ZM141.858 92.4672L57.9806 83.6608H146.61L141.858 92.4672ZM187.103 94.72L162.311 136.294H181.731L189.169 94.72H187.103ZM130.909 112.128L47.031 103.322H135.867L130.909 112.128ZM120.166 131.994L36.0815 122.982H125.124L120.166 131.994ZM25.1319 142.643H114.381L113.348 144.486L112.109 151.859L25.1319 142.643ZM108.597 171.52L21 162.304H110.249L108.597 171.52ZM165.823 191.386L78.227 182.17H167.476L165.823 191.386Z" fill="#F2FF00"/>
</svg>
